# xmcd CD database file
#
# Track frame offsets:
#	150
#	30134
#	59469
#	78524
#	99433
#	112803
#	146786
#	166974
#	181912
#	211253
#	228526
#
# Disc length: 3294 seconds
#
# Revision: 4
# Processed by: cddbd v1.5.2PL0 Copyright (c) Steve Scherf et al.
# Submitted via: CDex 1.51
#
DISCID=870cdc0b
DTITLE=Anne Ducros - Purple Songs
DYEAR=2001
DGENRE=Jazz
TTITLE0=A Timeless Place (The Peacocks)
TTITLE1=Ode To Billie Joe
TTITLE2=Dreamer Alone
TTITLE3=In The Wee Small Hours Of The Morning
TTITLE4=Softly As A Morning Sunrise
TTITLE5=You Must Believe In Spring
TTITLE6=Who R. U. (D'Après "St Eustache")
TTITLE7=Sea Lady
TTITLE8=Lush Life
TTITLE9=Aovoattt (An Other Version Of A Trio Type Tune)
TTITLE10=Send In The Clowns
EXTD=YEAR: 2001
EXTT0=
EXTT1=
EXTT2=
EXTT3=
EXTT4=
EXTT5=
EXTT6=
EXTT7=
EXTT8=
EXTT9=
EXTT10=
PLAYORDER=
